<svg width="37" height="71" viewBox="0 0 37 71" fill="none" xmlns="http://www.w3.org/2000/svg">
<path d="M29.8682 54.8755C30.559 54.8755 31.2215 55.1495 31.71 55.6372C32.1985 56.125 32.4729 56.7865 32.4729 57.4762L32.4729 59.1927C32.4725 59.4274 32.3788 59.6523 32.2124 59.8181C32.0461 59.9839 31.8206 60.077 31.5856 60.077L1.92928 60.077C1.69393 60.077 1.46823 59.9836 1.30182 59.8175C1.1354 59.6513 1.04191 59.426 1.04191 59.191L1.04191 57.4762C1.04191 57.1347 1.10929 56.7965 1.24019 56.481C1.37109 56.1654 1.56296 55.8787 1.80484 55.6372C2.04671 55.3957 2.33386 55.2042 2.64989 55.0735C2.96592 54.9428 3.30463 54.8755 3.64669 54.8755L29.8682 54.8755Z" fill="white"/>
<path d="M2.08383 59.0367L2.08383 57.4762C2.08383 57.0624 2.24849 56.6655 2.54158 56.3728C2.83468 56.0802 3.2322 55.9158 3.6467 55.9158L29.8682 55.9158C30.2827 55.9158 30.6802 56.0802 30.9733 56.3728C31.2664 56.6655 31.431 57.0624 31.431 57.4762L31.431 59.0367L2.08383 59.0367ZM1.92928 61.1173L31.5856 61.1172C31.839 61.1175 32.09 61.0678 32.3241 60.9711C32.5583 60.8744 32.7711 60.7325 32.9503 60.5536C33.1295 60.3746 33.2716 60.1622 33.3685 59.9284C33.4653 59.6946 33.5151 59.444 33.5148 59.191L33.5148 57.4762C33.5148 56.9981 33.4205 56.5246 33.2373 56.0829C33.054 55.6411 32.7854 55.2397 32.4468 54.9016C31.7629 54.2188 30.8353 53.8352 29.8682 53.8352L3.6467 53.8352C3.16781 53.8352 2.69361 53.9294 2.25117 54.1124C1.80873 54.2953 1.40672 54.5635 1.0681 54.9016C0.729469 55.2397 0.460857 55.6411 0.277595 56.0829C0.0943294 56.5246 7.26929e-06 56.9981 7.31109e-06 57.4762L7.46115e-06 59.1927C7.48325e-06 59.4456 0.049919 59.696 0.146896 59.9296C0.243874 60.1632 0.386013 60.3754 0.565182 60.5542C0.744354 60.7329 0.95705 60.8746 1.19111 60.9713C1.42517 61.0679 1.67601 61.1175 1.92928 61.1173Z" fill="black"/>
<path d="M31.5856 10.8364C31.7021 10.8364 31.8175 10.8593 31.9251 10.9038C32.0328 10.9484 32.1306 11.0136 32.213 11.0959C32.2954 11.1782 32.3608 11.2758 32.4054 11.3833C32.45 11.4908 32.4729 11.606 32.4729 11.7224L32.4729 13.4371C32.4729 14.1269 32.1985 14.7884 31.71 15.2761C31.2215 15.7638 30.559 16.0378 29.8681 16.0378L3.64669 16.0378C3.30463 16.0378 2.96591 15.9706 2.64989 15.8399C2.33386 15.7092 2.04671 15.5176 1.80484 15.2761C1.56296 15.0346 1.37109 14.7479 1.24019 14.4324C1.10929 14.1168 1.04191 13.7786 1.04191 13.4371L1.04191 11.7206C1.04191 11.4857 1.1354 11.2603 1.30181 11.0942C1.46823 10.928 1.69393 10.8347 1.92927 10.8347L31.5856 10.8364Z" fill="white"/>
<path d="M3.6467 14.9975C3.2322 14.9975 2.83468 14.8331 2.54158 14.5405C2.24849 14.2479 2.08383 13.851 2.08383 13.4371L2.08383 11.8767L31.431 11.8767L31.431 13.4371C31.431 13.851 31.2664 14.2479 30.9733 14.5405C30.6802 14.8331 30.2826 14.9975 29.8681 14.9975L3.6467 14.9975ZM3.6467 17.0781L29.8681 17.0781C30.8353 17.0781 31.7629 16.6945 32.4467 16.0117C33.1306 15.3289 33.5148 14.4028 33.5148 13.4371L33.5148 11.7206C33.5148 11.4677 33.4649 11.2173 33.3679 10.9837C33.271 10.7501 33.1288 10.5379 32.9497 10.3592C32.7705 10.1804 32.5578 10.0387 32.3237 9.94208C32.0897 9.84546 31.8388 9.79585 31.5856 9.79608L1.92928 9.79608C1.67586 9.79585 1.42488 9.84552 1.19071 9.94224C0.956535 10.039 0.743762 10.1808 0.564571 10.3598C0.385375 10.5387 0.243274 10.7511 0.1464 10.9849C0.0495257 11.2187 -0.000221743 11.4693 7.16118e-06 11.7224L7.31109e-06 13.4371C7.39551e-06 14.4028 0.384212 15.3289 1.0681 16.0117C1.75199 16.6945 2.67954 17.0781 3.6467 17.0781Z" fill="black"/>
<path d="M28.7707 60.1636C28.1855 65.6529 23.021 69.9597 16.7574 69.9597C10.4938 69.9597 5.32938 65.6529 4.74417 60.1636L28.7707 60.1636Z" fill="white"/>
<path d="M16.7574 68.9194C11.4801 68.9194 7.05722 65.6095 5.98058 61.2039L27.5343 61.2039C26.4576 65.6095 22.0347 68.9194 16.7574 68.9194ZM16.7574 71C23.9987 71 29.8681 65.6824 29.8681 59.1233L3.64669 59.1233C3.64669 65.6824 9.51613 71 16.7574 71Z" fill="black"/>
<path d="M16.7574 1.04027C23.021 1.04027 28.1855 5.34708 28.7707 10.8364L4.74417 10.8364C5.32938 5.34709 10.4938 1.04027 16.7574 1.04027Z" fill="white"/>
<path d="M5.98057 9.79606C7.05721 5.39042 11.4801 2.08055 16.7574 2.08055C22.0347 2.08055 26.4576 5.39042 27.5343 9.79606L5.98057 9.79606ZM3.64669 11.8767L29.8681 11.8766C29.8681 5.3176 23.9987 -3.57265e-05 16.7574 -3.50934e-05C9.51612 -3.44604e-05 3.64669 5.3176 3.64669 11.8767Z" fill="black"/>
<path d="M5.55687 54.8755L27.958 54.8755L27.958 16.0379L5.55686 16.0379L5.55687 54.8755Z" fill="white"/>
<path d="M6.59878 53.8352L6.59878 17.0782L26.9161 17.0782L26.9161 53.8352L6.59878 53.8352ZM4.51496 55.9158L36.9879 55.9158L36.9879 53.8352L28.9999 53.8352L28.9999 17.0782L36.9879 17.0782L36.9879 14.9976L4.51495 14.9976L4.51496 55.9158Z" fill="black"/>
<path d="M27.958 43.4323L27.958 54.8755L20.1436 54.8755L20.1436 54.2791C21.6423 52.8053 26.9438 47.3784 27.8208 43.4323L27.958 43.4323Z" fill="#F71812"/>
<path d="M22.0451 53.8351C22.7762 53.067 23.6983 52.0562 24.6256 50.9327C25.4459 49.9497 26.2106 48.9217 26.9161 47.8534L26.9161 53.8351L22.0451 53.8351ZM19.1017 55.9157L28.9999 55.9157L28.9999 42.3919L26.9161 42.3919C26.9161 46.3797 19.1191 53.8351 19.1191 53.8351L19.1017 55.9157Z" fill="black"/>
<path d="M13.3625 16.0379L13.3625 16.6343C11.8639 18.108 6.56232 23.5349 5.68537 27.4811L5.55687 27.4811L5.55687 16.0379L13.3625 16.0379Z" fill="#F71812"/>
<path d="M6.59878 23.0598L6.59878 17.0781L11.461 17.0781C10.73 17.8462 9.80787 18.857 8.88057 19.9806C8.06319 20.9638 7.3014 21.9918 6.59878 23.0598ZM4.51496 28.5214L6.59878 28.5214C6.59878 24.5336 14.3958 17.0781 14.3958 17.0781L14.4131 14.9975L4.51496 14.9975L4.51496 28.5214Z" fill="black"/>
<path d="M27.958 16.0379L27.958 27.1118C27.958 29.9379 27.4596 31.5365 26.1798 32.8143L26.1155 32.8785L26.0634 32.953C23.3248 36.6389 20.1792 40.0052 16.6862 42.9884C11.1571 47.6957 7.58512 52.1933 6.03094 54.8755L5.55687 54.8755L5.55686 43.4236C5.86423 42.4943 8.08176 36.4536 15.4377 30.1789C23.4257 23.3615 26.2215 19.6026 27.7531 16.0379L27.958 16.0379Z" fill="#1923F6"/>
<path d="M6.59878 52.1273L6.59878 43.5969C7.0277 42.3832 9.28517 36.7934 16.1132 30.9695C21.9045 26.0315 25.025 22.6471 26.9161 19.7707L26.9161 27.1117C26.9161 30.0124 26.3274 31.1949 25.4418 32.0774L25.3133 32.2074L25.2091 32.3565C22.5228 35.9725 19.4353 39.2733 16.0055 42.196C11.7111 45.8595 8.55931 49.4191 6.59878 52.1273ZM4.51495 55.9157L6.65088 55.9157C7.9168 53.4884 11.461 48.807 17.3652 43.779C20.9283 40.7431 24.1327 37.311 26.9161 33.5494C28.4789 31.989 28.9999 30.0367 28.9999 27.1117L28.9999 14.9975L27.0532 14.9975C25.6276 18.6385 23.0957 22.2796 14.7604 29.3882C6.42513 36.4969 4.51495 43.2588 4.51495 43.2588L4.51495 55.9157Z" fill="black"/>
</svg>
