<svg width="192" height="192" viewBox="0 0 192 192" fill="none" xmlns="http://www.w3.org/2000/svg">
<circle cx="96" cy="96" r="96" fill="#387e80"/>
<path d="M61.9568 38.0952H92.8982C95.0752 38.0952 100.8 38.0952 100.8 44.5004C100.8 45.4586 100.8 46.4084 80.0879 143.049C78.0201 152.589 71.0854 152.589 68.6393 152.589H30.7465C30.4593 152.611 30.1707 152.575 29.8976 152.483C29.6245 152.392 29.3725 152.247 29.1564 152.056C28.9402 151.866 28.7643 151.634 28.639 151.375C28.5136 151.116 28.4414 150.834 28.4265 150.547C28.4265 150.412 28.561 150.135 31.15 137.736C31.3165 136.984 31.7277 136.307 32.3193 135.813C32.9109 135.319 33.6495 135.035 34.4198 135.004H60.1832L64.3861 114.974H45.7338C43.5568 114.974 37.8325 114.974 37.8325 108.56C37.8325 107.61 37.967 106.652 50.3738 47.6357C52.4164 38.0952 59.5276 38.0952 61.9568 38.0952ZM70.5474 55.6799L61.5449 97.5235H68.093L77.0871 55.6799H70.5474ZM158.597 38.0952C160.783 38.0952 166.507 38.0952 166.507 44.5004C166.507 45.4586 166.364 46.4084 158.185 85.1167C156.143 94.6571 149.326 94.6571 146.88 94.6571L146.737 95.3464C148.922 95.3464 154.369 95.3464 154.369 101.609C154.369 102.567 154.235 103.66 145.921 143.049C143.879 152.589 136.793 152.589 134.338 152.589H102.985C100.808 152.589 94.9408 152.589 94.9408 146.184C94.9408 145.226 95.0836 144.276 103.531 104.887C105.574 95.3464 112.391 95.3464 114.845 95.3464L114.98 94.6571C112.803 94.6571 107.348 94.6571 107.348 88.3949C107.348 87.4366 107.482 86.3439 115.661 47.6357C117.703 38.0952 124.798 38.0952 127.252 38.0952H158.597ZM118.796 135.004H125.336L131.884 104.063H125.336L118.796 135.004ZM129.017 86.6213H135.565L142.24 55.6799H135.7L129.017 86.6213Z" fill="white"/>
<path d="M59.4348 38.0952H90.3762C92.5533 38.0952 98.2775 38.0952 98.2775 44.5004C98.2775 45.4586 98.2775 46.4084 77.5659 143.049C75.4981 152.589 68.5634 152.589 66.1174 152.589H28.2245C27.9373 152.611 27.6487 152.575 27.3756 152.483C27.1026 152.392 26.8505 152.247 26.6344 152.056C26.4182 151.866 26.2423 151.634 26.117 151.375C25.9916 151.116 25.9194 150.834 25.9045 150.547C25.9045 150.412 26.039 150.135 28.628 137.736C28.7946 136.984 29.2058 136.307 29.7973 135.813C30.3889 135.319 31.1275 135.035 31.8978 135.004H57.6612L61.8641 114.974H43.2119C41.0348 114.974 35.3105 114.974 35.3105 108.56C35.3105 107.61 35.445 106.652 47.8518 47.6357C49.8944 38.0952 57.0056 38.0952 59.4348 38.0952ZM68.0255 55.6799L59.023 97.5235H65.571L74.5651 55.6799H68.0255ZM156.075 38.0952C158.261 38.0952 163.985 38.0952 163.985 44.5004C163.985 45.4586 163.842 46.4084 155.663 85.1167C153.621 94.6571 146.804 94.6571 144.358 94.6571L144.215 95.3464C146.4 95.3464 151.847 95.3464 151.847 101.609C151.847 102.567 151.713 103.66 143.399 143.049C141.357 152.589 134.271 152.589 131.816 152.589H100.463C98.286 152.589 92.4188 152.589 92.4188 146.184C92.4188 145.226 92.5617 144.276 101.009 104.887C103.052 95.3464 109.869 95.3464 112.323 95.3464L112.458 94.6571C110.281 94.6571 104.826 94.6571 104.826 88.3949C104.826 87.4366 104.96 86.3439 113.139 47.6357C115.181 38.0952 122.276 38.0952 124.73 38.0952H156.075ZM116.274 135.004H122.814L129.362 104.063H122.814L116.274 135.004ZM126.495 86.6213H133.043L139.718 55.6799H133.178L126.495 86.6213Z" stroke="#1AFFEA" stroke-width="1.5"/>
</svg>
