<svg width="96" height="96" viewBox="0 0 96 96" fill="none" xmlns="http://www.w3.org/2000/svg">
<circle cx="48" cy="48" r="48" fill="#387e80"/>
<path d="M30.9783 19.0476H46.449C47.5375 19.0476 50.3996 19.0476 50.3996 22.2502C50.3996 22.7293 50.3996 23.2042 40.0438 71.5243C39.0099 76.2946 35.5426 76.2946 34.3195 76.2946H15.3731C15.2295 76.3054 15.0852 76.2874 14.9487 76.2417C14.8122 76.1959 14.6861 76.1233 14.5781 76.0282C14.47 75.933 14.382 75.8172 14.3194 75.6876C14.2567 75.5579 14.2206 75.4171 14.2131 75.2733C14.2131 75.206 14.2804 75.0673 15.5749 68.8681C15.6582 68.4918 15.8637 68.1537 16.1595 67.9066C16.4553 67.6594 16.8246 67.5173 17.2098 67.5022H30.0915L32.1929 57.4868H22.8668C21.7783 57.4868 18.9161 57.4868 18.9161 54.2801C18.9161 53.8051 18.9834 53.326 25.1868 23.8178C26.2081 19.0476 29.7637 19.0476 30.9783 19.0476ZM35.2736 27.84L30.7723 48.7617H34.0464L38.5434 27.84H35.2736ZM79.2984 19.0476C80.3911 19.0476 83.2533 19.0476 83.2533 22.2502C83.2533 22.7293 83.1818 23.2042 79.0925 42.5583C78.0712 47.3286 74.6627 47.3286 73.4396 47.3286L73.3682 47.6732C74.4609 47.6732 77.1844 47.6732 77.1844 50.8043C77.1844 51.2834 77.1171 51.8298 72.9605 71.5243C71.9392 76.2946 68.3962 76.2946 67.169 76.2946H51.4924C50.4038 76.2946 47.4703 76.2946 47.4703 73.092C47.4703 72.6129 47.5417 72.138 51.7656 52.4434C52.7869 47.6732 56.1954 47.6732 57.4226 47.6732L57.4898 47.3286C56.4013 47.3286 53.6737 47.3286 53.6737 44.1974C53.6737 43.7183 53.7409 43.1719 57.8303 23.8178C58.8516 19.0476 62.3988 19.0476 63.626 19.0476H79.2984ZM59.3979 67.5022H62.6677L65.9418 52.0315H62.6677L59.3979 67.5022ZM64.5086 43.3106H67.7826L71.1197 27.84H67.8498L64.5086 43.3106Z" fill="white"/>
<path d="M29.7175 19.0476H45.1882C46.2768 19.0476 49.1389 19.0476 49.1389 22.2502C49.1389 22.7293 49.1389 23.2042 38.7831 71.5243C37.7492 76.2946 34.2818 76.2946 33.0588 76.2946H14.1124C13.9688 76.3054 13.8245 76.2874 13.6879 76.2417C13.5514 76.1959 13.4254 76.1233 13.3173 76.0282C13.2092 75.933 13.1213 75.8172 13.0586 75.6876C12.9959 75.5579 12.9598 75.4171 12.9524 75.2733C12.9524 75.206 13.0196 75.0673 14.3141 68.8681C14.3974 68.4918 14.603 68.1537 14.8988 67.9066C15.1946 67.6594 15.5639 67.5173 15.949 67.5022H28.8307L30.9322 57.4868H21.6061C20.5175 57.4868 17.6554 57.4868 17.6554 54.2801C17.6554 53.8051 17.7226 53.326 23.926 23.8178C24.9473 19.0476 28.5029 19.0476 29.7175 19.0476ZM34.0129 27.84L29.5116 48.7617H32.7856L37.2827 27.84H34.0129ZM78.0377 19.0476C79.1304 19.0476 81.9925 19.0476 81.9925 22.2502C81.9925 22.7293 81.9211 23.2042 77.8317 42.5583C76.8104 47.3286 73.4019 47.3286 72.1789 47.3286L72.1074 47.6732C73.2002 47.6732 75.9236 47.6732 75.9236 50.8043C75.9236 51.2834 75.8564 51.8298 71.6998 71.5243C70.6785 76.2946 67.1355 76.2946 65.9082 76.2946H50.2316C49.1431 76.2946 46.2095 76.2946 46.2095 73.092C46.2095 72.6129 46.281 72.138 50.5048 52.4434C51.5261 47.6732 54.9346 47.6732 56.1618 47.6732L56.2291 47.3286C55.1406 47.3286 52.4129 47.3286 52.4129 44.1974C52.4129 43.7183 52.4802 43.1719 56.5695 23.8178C57.5908 19.0476 61.138 19.0476 62.3652 19.0476H78.0377ZM58.1372 67.5022H61.407L64.681 52.0315H61.407L58.1372 67.5022ZM63.2478 43.3106H66.5219L69.8589 27.84H66.5891L63.2478 43.3106Z" stroke="#1AFFEA" stroke-width="1.5"/>
</svg>
