<svg width="36" height="36" viewBox="0 0 36 36" fill="none" xmlns="http://www.w3.org/2000/svg">
<circle cx="18" cy="18" r="18" fill="#387e80"/>
<path d="M11.6168 7.14288H17.4183C17.8265 7.14288 18.8998 7.14288 18.8998 8.34385C18.8998 8.52352 18.8998 8.70161 15.0163 26.8217C14.6286 28.6105 13.3284 28.6105 12.8697 28.6105H5.76483C5.71098 28.6146 5.65687 28.6078 5.60567 28.5907C5.55447 28.5735 5.50721 28.5463 5.46668 28.5106C5.42615 28.4749 5.39317 28.4315 5.36967 28.3829C5.34617 28.3343 5.33262 28.2814 5.32983 28.2275C5.32983 28.2023 5.35505 28.1503 5.84048 25.8256C5.87171 25.6845 5.94881 25.5577 6.05973 25.465C6.17065 25.3723 6.30914 25.319 6.45357 25.3134H11.2842L12.0722 21.5576H8.57496C8.16675 21.5576 7.09345 21.5576 7.09345 20.3551C7.09345 20.177 7.11867 19.9973 9.44495 8.93172C9.82793 7.14288 11.1613 7.14288 11.6168 7.14288ZM13.2275 10.44L11.5395 18.2857H12.7673L14.4537 10.44H13.2275ZM29.7368 7.14288C30.1466 7.14288 31.2199 7.14288 31.2199 8.34385C31.2199 8.52352 31.1931 8.70161 29.6596 15.9594C29.2766 17.7482 27.9984 17.7482 27.5398 17.7482L27.513 17.8775C27.9228 17.8775 28.944 17.8775 28.944 19.0516C28.944 19.2313 28.9188 19.4362 27.3601 26.8217C26.9771 28.6105 25.6485 28.6105 25.1883 28.6105H19.3095C18.9013 28.6105 17.8013 28.6105 17.8013 27.4095C17.8013 27.2299 17.828 27.0518 19.412 19.6663C19.795 17.8775 21.0732 17.8775 21.5334 17.8775L21.5586 17.7482C21.1504 17.7482 20.1275 17.7482 20.1275 16.5741C20.1275 16.3944 20.1527 16.1895 21.6863 8.93172C22.0692 7.14288 23.3994 7.14288 23.8597 7.14288H29.7368ZM22.2741 25.3134H23.5003L24.7281 19.5119H23.5003L22.2741 25.3134ZM24.1906 16.2415H25.4184L26.6698 10.44H25.4436L24.1906 16.2415Z" fill="white"/>
<path d="M11.1441 7.14288H16.9456C17.3538 7.14288 18.4271 7.14288 18.4271 8.34385C18.4271 8.52352 18.4271 8.70161 14.5437 26.8217C14.156 28.6105 12.8557 28.6105 12.3971 28.6105H5.29217C5.23833 28.6146 5.18421 28.6078 5.13301 28.5907C5.08181 28.5735 5.03455 28.5463 4.99403 28.5106C4.9535 28.4749 4.92051 28.4315 4.89701 28.3829C4.87351 28.3343 4.85997 28.2814 4.85718 28.2275C4.85718 28.2023 4.88239 28.1503 5.36782 25.8256C5.39906 25.6845 5.47616 25.5577 5.58708 25.465C5.698 25.3723 5.83649 25.319 5.98091 25.3134H10.8116L11.5996 21.5576H8.1023C7.6941 21.5576 6.6208 21.5576 6.6208 20.3551C6.6208 20.177 6.64601 19.9973 8.97229 8.93172C9.35527 7.14288 10.6886 7.14288 11.1441 7.14288ZM12.7549 10.44L11.0669 18.2857H12.2946L13.981 10.44H12.7549ZM29.2642 7.14288C29.6739 7.14288 30.7472 7.14288 30.7472 8.34385C30.7472 8.52352 30.7204 8.70161 29.1869 15.9594C28.8039 17.7482 27.5258 17.7482 27.0671 17.7482L27.0403 17.8775C27.4501 17.8775 28.4714 17.8775 28.4714 19.0516C28.4714 19.2313 28.4462 19.4362 26.8874 26.8217C26.5045 28.6105 25.1758 28.6105 24.7156 28.6105H18.8369C18.4287 28.6105 17.3286 28.6105 17.3286 27.4095C17.3286 27.2299 17.3554 27.0518 18.9393 19.6663C19.3223 17.8775 20.6005 17.8775 21.0607 17.8775L21.0859 17.7482C20.6777 17.7482 19.6549 17.7482 19.6549 16.5741C19.6549 16.3944 19.6801 16.1895 21.2136 8.93172C21.5966 7.14288 22.9268 7.14288 23.387 7.14288H29.2642ZM21.8015 25.3134H23.0277L24.2554 19.5119H23.0277L21.8015 25.3134ZM23.718 16.2415H24.9457L26.1971 10.44H24.9709L23.718 16.2415Z" stroke="#1AFFEA" stroke-width="0.5"/>
</svg>
