<svg width="512" height="512" viewBox="0 0 512 512" fill="none" xmlns="http://www.w3.org/2000/svg">
<circle cx="256" cy="256" r="256" fill="#387e80"/>
<path d="M165.218 101.587H247.728C253.534 101.587 268.798 101.587 268.798 118.668C268.798 121.223 268.798 123.756 213.567 381.463C208.053 406.904 189.561 406.904 183.038 406.904H81.9903C81.2245 406.962 80.4549 406.866 79.7267 406.622C78.9985 406.378 78.3264 405.991 77.75 405.484C77.1736 404.976 76.7045 404.359 76.3702 403.667C76.036 402.976 75.8434 402.224 75.8037 401.457C75.8037 401.099 76.1624 400.359 83.0662 367.297C83.5105 365.29 84.607 363.486 86.1845 362.168C87.762 360.85 89.7317 360.092 91.7857 360.012H160.488L171.696 306.596H121.957C116.151 306.596 100.886 306.596 100.886 289.494C100.886 286.961 101.245 284.405 134.33 127.028C139.777 101.587 158.74 101.587 165.218 101.587ZM188.126 148.48L164.12 260.063H181.581L205.565 148.48H188.126ZM422.925 101.587C428.753 101.587 444.018 101.587 444.018 118.668C444.018 121.223 443.637 123.756 421.827 226.978C416.38 252.419 398.201 252.419 391.678 252.419L391.297 254.257C397.125 254.257 411.65 254.257 411.65 270.956C411.65 273.512 411.292 276.426 389.123 381.463C383.676 406.904 364.78 406.904 358.235 406.904H274.626C268.821 406.904 253.175 406.904 253.175 389.824C253.175 387.269 253.556 384.736 276.083 279.698C281.53 254.257 299.709 254.257 306.254 254.257L306.613 252.419C300.807 252.419 286.26 252.419 286.26 235.72C286.26 233.164 286.618 230.25 308.428 127.028C313.875 101.587 332.794 101.587 339.339 101.587H422.925ZM316.789 360.012H334.228L351.69 277.502H334.228L316.789 360.012ZM344.046 230.99H361.508L379.305 148.48H361.866L344.046 230.99Z" fill="white"/>
<path d="M158.494 101.587H241.004C246.81 101.587 262.075 101.587 262.075 118.668C262.075 121.223 262.075 123.756 206.844 381.463C201.33 406.904 182.837 406.904 176.314 406.904H75.2667C74.5009 406.962 73.7312 406.866 73.003 406.622C72.2748 406.378 71.6028 405.991 71.0264 405.484C70.4499 404.976 69.9808 404.359 69.6466 403.667C69.3123 402.976 69.1197 402.224 69.0801 401.457C69.0801 401.099 69.4387 400.359 76.3426 367.297C76.7868 365.29 77.8834 363.486 79.4609 362.168C81.0384 360.85 83.008 360.092 85.0621 360.012H153.765L164.972 306.596H115.233C109.427 306.596 94.1627 306.596 94.1627 289.494C94.1627 286.961 94.5213 284.405 127.606 127.028C133.053 101.587 152.016 101.587 158.494 101.587ZM181.403 148.48L157.396 260.063H174.857L198.842 148.48H181.403ZM416.202 101.587C422.029 101.587 437.294 101.587 437.294 118.668C437.294 121.223 436.913 123.756 415.103 226.978C409.656 252.419 391.478 252.419 384.955 252.419L384.574 254.257C390.402 254.257 404.927 254.257 404.927 270.956C404.927 273.512 404.568 276.426 382.399 381.463C376.953 406.904 358.057 406.904 351.511 406.904H267.903C262.097 406.904 246.451 406.904 246.451 389.824C246.451 387.269 246.832 384.736 269.36 279.698C274.807 254.257 292.985 254.257 299.531 254.257L299.889 252.419C294.084 252.419 279.536 252.419 279.536 235.72C279.536 233.164 279.895 230.25 301.705 127.028C307.152 101.587 326.07 101.587 332.615 101.587H416.202ZM310.066 360.012H327.505L344.966 277.502H327.505L310.066 360.012ZM337.323 230.99H354.784L372.582 148.48H355.143L337.323 230.99Z" stroke="#1AFFEA" stroke-width="5"/>
</svg>
