<svg width="72" height="72" viewBox="0 0 72 72" fill="none" xmlns="http://www.w3.org/2000/svg">
<circle cx="36" cy="36" r="36" fill="#387e80"/>
<path d="M23.2338 14.2857H34.8368C35.6532 14.2857 37.7998 14.2857 37.7998 16.6876C37.7998 17.047 37.7998 17.4032 30.0329 53.6433C29.2575 57.2209 26.657 57.2209 25.7397 57.2209H11.5299C11.4222 57.2291 11.314 57.2156 11.2116 57.1813C11.1092 57.147 11.0147 57.0925 10.9336 57.0211C10.8525 56.9498 10.7866 56.8629 10.7396 56.7657C10.6926 56.6685 10.6655 56.5628 10.6599 56.455C10.6599 56.4045 10.7103 56.3005 11.6812 51.6511C11.7437 51.3689 11.8979 51.1153 12.1197 50.9299C12.3415 50.7446 12.6185 50.6379 12.9074 50.6267H22.5687L24.1447 43.1151H17.1502C16.3338 43.1151 14.1872 43.1151 14.1872 40.71C14.1872 40.3539 14.2376 39.9945 18.8901 17.8634C19.6561 14.2857 22.3228 14.2857 23.2338 14.2857ZM26.4553 20.88L23.0793 36.5713H25.5348L28.9076 20.88H26.4553ZM59.4739 14.2857C60.2934 14.2857 62.44 14.2857 62.44 16.6876C62.44 17.047 62.3864 17.4032 59.3194 31.9187C58.5534 35.4964 55.9971 35.4964 55.0798 35.4964L55.0262 35.7549C55.8458 35.7549 57.8883 35.7549 57.8883 38.1032C57.8883 38.4626 57.8379 38.8724 54.7204 53.6433C53.9545 57.2209 51.2972 57.2209 50.3768 57.2209H38.6193C37.8029 57.2209 35.6028 57.2209 35.6028 54.819C35.6028 54.4597 35.6563 54.1035 38.8242 39.3326C39.5902 35.7549 42.1466 35.7549 43.067 35.7549L43.1174 35.4964C42.301 35.4964 40.2553 35.4964 40.2553 33.1481C40.2553 32.7887 40.3057 32.379 43.3728 17.8634C44.1387 14.2857 46.7991 14.2857 47.7196 14.2857H59.4739ZM44.5485 50.6267H47.0009L49.4564 39.0237H47.0009L44.5485 50.6267ZM48.3815 32.483H50.837L53.3398 20.88H50.8875L48.3815 32.483Z" fill="white"/>
<path d="M22.2882 14.2857H33.8912C34.7076 14.2857 36.8542 14.2857 36.8542 16.6876C36.8542 17.047 36.8542 17.4032 29.0874 53.6433C28.3119 57.2209 25.7114 57.2209 24.7942 57.2209H10.5843C10.4767 57.2291 10.3684 57.2156 10.266 57.1813C10.1636 57.147 10.0691 57.0925 9.98805 57.0211C9.90699 56.9498 9.84102 56.8629 9.79402 56.7657C9.74702 56.6685 9.71993 56.5628 9.71436 56.455C9.71436 56.4045 9.76479 56.3005 10.7356 51.6511C10.7981 51.3689 10.9523 51.1153 11.1742 50.9299C11.396 50.7446 11.673 50.6379 11.9618 50.6267H21.6231L23.1992 43.1151H16.2046C15.3882 43.1151 13.2416 43.1151 13.2416 40.71C13.2416 40.3539 13.292 39.9945 17.9446 17.8634C18.7105 14.2857 21.3773 14.2857 22.2882 14.2857ZM25.5097 20.88L22.1338 36.5713H24.5893L27.9621 20.88H25.5097ZM58.5283 14.2857C59.3479 14.2857 61.4945 14.2857 61.4945 16.6876C61.4945 17.047 61.4409 17.4032 58.3739 31.9187C57.6079 35.4964 55.0515 35.4964 54.1342 35.4964L54.0806 35.7549C54.9002 35.7549 56.9428 35.7549 56.9428 38.1032C56.9428 38.4626 56.8924 38.8724 53.7749 53.6433C53.0089 57.2209 50.3517 57.2209 49.4312 57.2209H37.6738C36.8574 57.2209 34.6572 57.2209 34.6572 54.819C34.6572 54.4597 34.7108 54.1035 37.8787 39.3326C38.6446 35.7549 41.201 35.7549 42.1214 35.7549L42.1719 35.4964C41.3555 35.4964 39.3097 35.4964 39.3097 33.1481C39.3097 32.7887 39.3602 32.379 42.4272 17.8634C43.1932 14.2857 45.8536 14.2857 46.774 14.2857H58.5283ZM43.603 50.6267H46.0553L48.5108 39.0237H46.0553L43.603 50.6267ZM47.4359 32.483H49.8915L52.3943 20.88H49.9419L47.4359 32.483Z" stroke="#1AFFEA"/>
</svg>
