<svg width="126" height="126" viewBox="0 0 126 126" fill="none" xmlns="http://www.w3.org/2000/svg">
<circle cx="63" cy="63" r="63" fill="#0D1117"/>
<path d="M40.659 25H60.9643C62.393 25 66.1496 25 66.1496 29.2034C66.1496 29.8322 66.1496 30.4556 52.5576 93.8757C51.2006 100.137 46.6497 100.137 45.0445 100.137H20.1773C19.9888 100.151 19.7994 100.127 19.6202 100.067C19.441 100.007 19.2756 99.9119 19.1338 99.787C18.9919 99.6621 18.8765 99.5101 18.7942 99.34C18.7119 99.1698 18.6645 98.9849 18.6548 98.7962C18.6548 98.7079 18.743 98.5259 20.442 90.3895C20.5514 89.8955 20.8212 89.4517 21.2094 89.1274C21.5977 88.803 22.0824 88.6164 22.5879 88.5967H39.4951L42.2532 75.4515H30.0127C28.584 75.4515 24.8275 75.4515 24.8275 71.2426C24.8275 70.6193 24.9157 69.9904 33.0577 31.2609C34.3981 25 39.0649 25 40.659 25ZM46.2966 36.54L40.3888 63.9998H44.6859L50.5883 36.54H46.2966ZM104.079 25C105.513 25 109.27 25 109.27 29.2034C109.27 29.8322 109.176 30.4556 103.809 55.8578C102.468 62.1187 97.9948 62.1187 96.3896 62.1187L96.2958 62.5711C97.73 62.5711 101.305 62.5711 101.305 66.6807C101.305 67.3095 101.216 68.0266 95.7607 93.8757C94.4203 100.137 89.7701 100.137 88.1593 100.137H67.5838C66.1551 100.137 62.3048 100.137 62.3048 95.9333C62.3048 95.3044 62.3985 94.6811 67.9423 68.832C69.2828 62.5711 73.7565 62.5711 75.3672 62.5711L75.4555 62.1187C74.0268 62.1187 70.4467 62.1187 70.4467 58.0091C70.4467 57.3803 70.535 56.6632 75.9023 31.2609C77.2427 25 81.8984 25 83.5092 25H104.079ZM77.9598 88.5967H82.2515L86.5486 68.2914H82.2515L77.9598 88.5967ZM84.6676 56.8452H88.9647L93.3446 36.54H89.053L84.6676 56.8452Z" fill="white"/>
<path d="M39.0043 25H59.3095C60.7382 25 64.4948 25 64.4948 29.2034C64.4948 29.8322 64.4948 30.4556 50.9028 93.8757C49.5458 100.137 44.9949 100.137 43.3897 100.137H18.5225C18.334 100.151 18.1446 100.127 17.9654 100.067C17.7862 100.007 17.6208 99.9119 17.479 99.787C17.3371 99.6621 17.2217 99.5101 17.1394 99.34C17.0572 99.1698 17.0098 98.9849 17 98.7962C17 98.7079 17.0883 98.5259 18.7873 90.3895C18.8966 89.8955 19.1664 89.4517 19.5546 89.1274C19.9429 88.803 20.4276 88.6164 20.9331 88.5967H37.8403L40.5985 75.4515H28.3579C26.9292 75.4515 23.1727 75.4515 23.1727 71.2426C23.1727 70.6193 23.2609 69.9904 31.4029 31.2609C32.7433 25 37.4101 25 39.0043 25ZM44.6419 36.54L38.734 63.9998H43.0311L48.9335 36.54H44.6419ZM102.424 25C103.859 25 107.615 25 107.615 29.2034C107.615 29.8322 107.521 30.4556 102.154 55.8578C100.814 62.1187 96.34 62.1187 94.7348 62.1187L94.641 62.5711C96.0752 62.5711 99.6498 62.5711 99.6498 66.6807C99.6498 67.3095 99.5615 68.0266 94.1059 93.8757C92.7655 100.137 88.1153 100.137 86.5046 100.137H65.929C64.5003 100.137 60.65 100.137 60.65 95.9333C60.65 95.3044 60.7437 94.6811 66.2876 68.832C67.628 62.5711 72.1017 62.5711 73.7124 62.5711L73.8007 62.1187C72.372 62.1187 68.7919 62.1187 68.7919 58.0092C68.7919 57.3803 68.8802 56.6632 74.2475 31.2609C75.5879 25 80.2436 25 81.8544 25H102.424ZM76.305 88.5967H80.5967L84.8938 68.2914H80.5967L76.305 88.5967ZM83.0128 56.8452H87.3099L91.6898 36.54H87.3982L83.0128 56.8452Z" stroke="#1AFFEA" stroke-width="1.5"/>
</svg>
