<svg width="144" height="144" viewBox="0 0 144 144" fill="none" xmlns="http://www.w3.org/2000/svg">
<circle cx="72" cy="72" r="72" fill="#387e80"/>
<path d="M46.4676 28.5714H69.6736C71.3064 28.5714 75.5996 28.5714 75.5996 33.3753C75.5996 34.094 75.5996 34.8063 60.0659 107.287C58.515 114.442 53.314 114.442 51.4794 114.442H23.0598C22.8444 114.458 22.628 114.431 22.4232 114.363C22.2183 114.294 22.0293 114.185 21.8672 114.042C21.7051 113.9 21.5732 113.726 21.4792 113.531C21.3851 113.337 21.331 113.126 21.3198 112.91C21.3198 112.809 21.4207 112.601 23.3624 103.302C23.4873 102.738 23.7957 102.231 24.2394 101.86C24.6831 101.489 25.2371 101.276 25.8148 101.253H45.1374L48.2895 86.2303H34.3003C32.6675 86.2303 28.3743 86.2303 28.3743 81.4201C28.3743 80.7077 28.4752 79.989 37.7803 35.7268C39.3122 28.5714 44.6456 28.5714 46.4676 28.5714ZM52.9105 41.7599L46.1586 73.1426H51.0697L57.8152 41.7599H52.9105ZM118.948 28.5714C120.587 28.5714 124.88 28.5714 124.88 33.3753C124.88 34.094 124.773 34.8063 118.639 63.8375C117.107 70.9928 111.994 70.9928 110.16 70.9928L110.052 71.5098C111.692 71.5098 115.777 71.5098 115.777 76.2065C115.777 76.9252 115.676 77.7447 109.441 107.287C107.909 114.442 102.594 114.442 100.754 114.442H77.2387C75.6059 114.442 71.2055 114.442 71.2055 109.638C71.2055 108.919 71.3127 108.207 77.6485 78.6651C79.1804 71.5098 84.2932 71.5098 86.134 71.5098L86.2349 70.9928C84.6021 70.9928 80.5106 70.9928 80.5106 66.2962C80.5106 65.5775 80.6115 64.7579 86.7455 35.7268C88.2775 28.5714 93.5983 28.5714 95.4391 28.5714H118.948ZM89.097 101.253H94.0017L98.9128 78.0473H94.0017L89.097 101.253ZM96.763 64.966H101.674L106.68 41.7599H101.775L96.763 64.966Z" fill="white"/>
<path d="M44.5762 28.5714H67.7822C69.415 28.5714 73.7082 28.5714 73.7082 33.3753C73.7082 34.094 73.7082 34.8063 58.1745 107.287C56.6237 114.442 51.4226 114.442 49.5881 114.442H21.1684C20.9531 114.458 20.7366 114.431 20.5318 114.363C20.327 114.294 20.138 114.185 19.9759 114.042C19.8137 113.9 19.6818 113.726 19.5878 113.531C19.4938 113.337 19.4396 113.126 19.4285 112.91C19.4285 112.809 19.5293 112.601 21.471 103.302C21.596 102.738 21.9044 102.231 22.3481 101.86C22.7917 101.489 23.3457 101.276 23.9234 101.253H43.246L46.3981 86.2303H32.409C30.7762 86.2303 26.4829 86.2303 26.4829 81.4201C26.4829 80.7077 26.5838 79.989 35.8889 35.7268C37.4209 28.5714 42.7543 28.5714 44.5762 28.5714ZM51.0192 41.7599L44.2673 73.1426H49.1783L55.9239 41.7599H51.0192ZM117.056 28.5714C118.695 28.5714 122.989 28.5714 122.989 33.3753C122.989 34.094 122.882 34.8063 116.747 63.8375C115.216 70.9928 110.103 70.9928 108.268 70.9928L108.161 71.5098C109.8 71.5098 113.885 71.5098 113.885 76.2065C113.885 76.9252 113.784 77.7447 107.55 107.287C106.018 114.442 100.703 114.442 98.8623 114.442H75.3473C73.7145 114.442 69.3141 114.442 69.3141 109.638C69.3141 108.919 69.4213 108.207 75.7571 78.6651C77.289 71.5098 82.4018 71.5098 84.2427 71.5098L84.3435 70.9928C82.7107 70.9928 78.6192 70.9928 78.6192 66.2962C78.6192 65.5775 78.7201 64.7579 84.8542 35.7268C86.3861 28.5714 91.7069 28.5714 93.5478 28.5714H117.056ZM87.2057 101.253H92.1104L97.0214 78.0473H92.1104L87.2057 101.253ZM94.8717 64.966H99.7827L104.788 41.7599H99.8835L94.8717 64.966Z" stroke="#1AFFEA" stroke-width="1.5"/>
</svg>
