<svg width="99" height="99" viewBox="0 0 99 99" fill="none" xmlns="http://www.w3.org/2000/svg">
<circle cx="49.5" cy="49.5" r="49.5" fill="white"/>
<g clip-path="url(#clip0)">
<path d="M38.5534 32.3269C42.1658 32.5312 46.0676 34.0758 45.6965 41.0716C45.4182 46.0153 44.5833 45.8287 44.5833 45.8287C44.5833 45.8287 45.2327 39.1128 42.9135 36.501C41.3365 33.7027 32.8946 32.6767 32.0597 41.8178C32.0597 46.6682 33.7295 47.5077 35.6777 47.601C36.1415 47.601 36.5126 48.0674 35.0283 48.0674C33.544 48.0674 30.8538 47.4144 30.3899 42.0977C30.2044 36.7809 33.544 32.3969 38.5534 32.3269Z" fill="black"/>
<path d="M35.8632 55.9958C35.8632 55.9958 39.1101 50.4924 39.7595 48.0673C39.7595 48.0673 37.4403 49.8395 34.1934 49.8395C30.9466 49.8395 27.978 46.3883 27.978 41.0715C27.978 35.7547 31.7815 29.3186 38.8318 29.3186C45.8821 29.3186 49.129 35.0085 49.129 41.911C49.129 48.8135 45.6966 54.9697 42.2642 58.9806C38.8318 62.9916 34.2862 66.8159 29.4623 67.8419C28.5346 68.1218 28.7202 67.5621 29.5551 67.2823C30.39 67.0025 35.7705 64.5773 39.5739 60.1C43.3774 55.6227 47.4592 48.1605 47.4592 42.6572C47.5519 36.874 45.2327 31.1841 38.9246 31.1841C32.6164 31.1841 29.5551 37.0606 29.5551 41.5379C29.5551 46.0152 32.0598 51.4252 39.8522 47.6941C40.4088 46.4815 43.2846 36.9673 38.1824 36.9673C34.8428 36.9673 34.2862 40.232 33.2658 42.2841C33.2658 42.2841 32.9875 35.3816 38.6463 35.3816C44.3051 35.3816 43.1919 42.8437 42.728 45.2689C42.2642 47.6941 39.3884 54.4101 35.3066 59.0739C33.4513 61.4991 33.173 60.9395 33.6368 60.2865C34.1007 59.6336 35.8632 55.9958 35.8632 55.9958Z" fill="black"/>
<path d="M27.2822 66.9557C27.2822 66.9557 28.0244 66.3028 28.2099 66.2095C28.3954 66.1162 33.9615 62.665 35.2602 60.8927C36.6517 59.2138 37.3939 58.7474 37.5794 58.8407C37.7649 58.9339 36.0951 61.9188 34.2398 63.5978C32.3844 65.2768 29.0448 66.9557 27.2822 66.9557Z" fill="black"/>
<path d="M61.0032 64.9504C56.0866 64.6706 53.118 62.1521 53.118 57.6748C53.118 53.1975 55.4372 48.6269 63.1369 44.1496C69.6306 39.8589 68.7957 33.6093 63.3224 34.3556C61.6526 34.8219 61.4671 35.6614 61.5598 35.7547C61.7454 35.9413 62.7658 35.195 64.1573 35.195C65.5488 35.195 66.7548 36.5942 65.2705 39.2992C63.5079 42.0043 59.3334 43.9631 59.3334 43.9631C57.5245 42.1442 56.2721 39.6723 56.6432 36.6875C57.0142 33.7026 59.89 30.9976 64.5284 30.9976C68.8884 30.9976 72.2281 33.9824 72.2281 37.9934C72.2281 42.0043 70.0017 44.9891 65.6416 47.8807C61.2815 50.7723 58.1274 53.5706 57.6636 57.1151C57.3853 59.8202 58.7768 60.8462 61.0032 60.8462C63.7862 60.8462 68.3318 58.421 68.3318 53.1042C68.3318 51.2387 66.9403 49.4664 66.9403 49.4664L67.6825 49C69.1667 50.7723 69.8161 53.7572 69.6306 55.1563C69.445 56.5555 68.7957 58.421 67.7752 59.5403C66.7548 60.6596 66.4765 61.3126 66.5693 61.4059C66.662 61.4991 67.6825 61.4991 69.1667 59.5403C70.651 57.5815 71.857 54.8765 70.1872 51.0521C69.074 48.9068 68.3318 48.6269 68.3318 48.6269C68.3318 48.6269 74.4545 44.8958 74.2689 37.9934C73.6196 31.0909 68.0535 29.3186 64.5284 29.3186C61.0032 29.3186 55.4372 31.5572 55.4372 37.1539C55.4372 41.911 58.8696 44.3362 58.8696 44.3362C58.8696 44.3362 50.7061 49.7462 50.7061 57.2084C50.7061 64.6706 57.9419 66.0697 61.096 66.0697C64.2501 66.0697 70.4655 64.5773 71.5787 58.0479C71.5787 58.0479 68.7957 64.9504 61.0032 64.9504ZM67.0331 54.037C66.291 56.5555 63.2296 60.0067 60.7249 59.2605C59.5189 58.7941 59.7972 55.9025 62.1164 53.1975C64.8067 50.5857 66.3837 49.7462 66.3837 49.7462C66.3837 49.7462 67.7752 51.5185 67.0331 54.037Z" fill="black"/>
<path d="M59.7971 42.1909C59.7971 42.1909 56.0864 34.3556 64.25 33.4229C68.9811 33.4229 71.2075 38.6464 65.2704 43.8699C58.8695 48.9068 57.5707 49.0934 56.1792 53.9438C57.1069 52.8245 58.9622 50.4925 60.3537 49.6531C61.7452 48.627 70.9292 44.3363 71.1147 38.2733C71.3003 32.2103 65.9198 31.7439 64.0644 31.7439C62.2091 31.7439 57.6635 32.7699 57.6635 37.9002C58.1273 41.538 59.7971 42.1909 59.7971 42.1909Z" fill="black"/>
<path d="M79 83.5954L78.1429 83.8883L78.0696 83.7791C78.1392 83.5245 78.2097 83.2708 78.295 82.9592L79 83.1225V83.5954Z" fill="#1923F6"/>
<path d="M61.9846 86.836C61.5745 87.0029 61.2489 87.2025 60.9001 87.2594C60.5893 87.3107 60.645 86.9638 60.6153 86.7669C60.6014 86.6737 60.6849 86.558 60.722 86.4591C60.9715 86.4209 61.1923 86.3929 61.351 86.6587C61.3964 86.7352 61.5838 86.724 61.7053 86.752C61.7907 86.7781 61.8742 86.8043 61.9846 86.836Z" fill="#1923F6"/>
<path d="M32.2917 85.0813C32.3845 85.2585 32.4772 85.4348 32.5654 85.6111L32.6887 85.6242C32.5644 85.8415 32.2824 85.9469 32.1164 85.8397C31.826 85.6531 31.6117 85.3434 31.3687 85.0934H32.2963L32.2917 85.0813Z" fill="#1923F6"/>
<path d="M75.4562 86.751L75.6881 87.1241C75.1158 87.0877 75.4043 87.4412 75.4163 87.6698L75.2892 87.6996L74.908 87.2099L75.4562 86.751Z" fill="#1923F6"/>
<path d="M30.6209 84.1365L31.0374 84.5003C30.9066 84.7157 30.4651 84.7642 30.1636 84.5795L30.6209 84.1365Z" fill="#1923F6"/>
<path d="M77.5649 79.9166C77.8776 79.4502 78.142 79.2879 78.4434 79.8233L77.5649 79.9166Z" fill="#1923F6"/>
<path d="M28.0483 87.2602H27.2561L27.707 86.8284L28.0483 87.2602Z" fill="#1923F6"/>
<path d="M33.2435 85.516C33.1639 85.4213 33.0969 85.3165 33.044 85.2045C33.032 85.17 33.1563 85.087 33.2175 85.0254L33.4337 85.3882L33.2435 85.516Z" fill="#1923F6"/>
<path d="M50.9294 86.5338C50.9378 86.3622 50.9424 86.1905 50.9591 86.0198C50.9784 86.007 51.0002 85.9982 51.023 85.9942C51.0459 85.9902 51.0693 85.991 51.0918 85.9965C51.1112 86.0101 51.1269 86.0282 51.1376 86.0494C51.1483 86.0706 51.1536 86.0941 51.153 86.1178C51.1345 86.2512 51.0992 86.3827 51.0704 86.5142L50.9294 86.5338Z" fill="#1923F6"/>
<path d="M78.204 81.6814C78.4628 81.4258 78.7059 81.1366 78.3599 80.7719C78.2478 80.6741 78.123 80.5921 77.9888 80.5285C77.8292 80.4352 77.6437 80.3773 77.5064 80.2598C77.127 79.9371 77.3895 79.6703 77.5936 79.3494L77.2949 79.4427L77.2467 79.3737L77.8033 79.0939C77.6966 78.7963 77.601 78.5342 77.525 78.3075C77.6873 78.2935 77.896 78.3346 77.9591 78.2572C78.1326 78.0324 78.2105 77.7563 78.038 77.4494L77.678 77.6359C77.614 77.3011 77.5296 77.0073 77.5092 76.7097C77.4925 76.47 77.4442 76.358 77.1771 76.3478C76.9619 76.3394 76.6956 76.3021 76.5509 76.1687C76.3088 75.9458 76.1539 76.0754 75.9869 76.2097C75.8199 76.3441 75.6863 76.3142 75.5091 76.2097C75.2106 76.0337 74.8985 75.8821 74.5759 75.7564C74.4386 75.7023 74.2243 75.6715 74.1195 75.7415C73.7048 76.0213 73.3773 75.8805 73.0369 75.6137C72.9924 75.5876 72.9427 75.5717 72.8914 75.5672C72.84 75.5626 72.7883 75.5696 72.74 75.5876C71.9469 75.9411 71.2715 75.5587 70.5656 75.2826C70.3475 75.1968 70.0776 75.2443 69.7427 75.2257C69.6323 75.0261 69.4384 74.8264 69.1861 75.2816C69.1768 75.2994 68.9403 75.2518 68.892 75.179C68.7158 74.9132 68.5608 74.8889 68.289 75.0755C67.994 75.2779 67.6842 75.138 67.3966 74.9729C67.2585 74.8887 67.1069 74.829 66.9486 74.7966C66.6512 74.7487 66.3514 74.7175 66.0506 74.7033C65.9198 74.6959 65.7843 74.7574 65.6554 74.7462C65.4835 74.7281 65.3142 74.6905 65.1507 74.6343C64.8502 74.5354 64.5561 74.4207 64.1897 74.2873C64.3093 74.7033 64.3937 74.9934 64.4772 75.2835L64.3158 75.3432C64.1915 75.0634 64.0375 74.7835 63.9522 74.486C63.8919 74.2668 63.7852 74.1968 63.5969 74.2351C63.351 74.2845 63.1108 74.3657 62.8668 74.4216C62.7695 74.4544 62.6665 74.4662 62.5644 74.4561C62.1423 74.3629 61.7295 74.2472 61.3018 74.1688C61.1988 74.1502 61.0745 74.2472 60.9428 74.2976C60.7869 73.9879 60.5903 73.8825 60.2934 74.1688C60.2341 74.2248 60.0365 74.2024 59.9483 74.1455C59.5773 73.8993 59.2312 73.7939 58.8286 74.1157C58.6793 74.2351 58.4427 74.2948 58.272 74.0224C58.1598 73.8358 56.8861 73.6717 56.695 73.7724C56.2887 73.9832 55.8916 74.097 55.4501 73.8256C55.2784 73.7202 55.04 73.7323 54.835 73.6754C54.5381 73.5989 54.2431 73.515 53.9481 73.4338L53.9528 73.4282H51.1846C51.025 73.5112 50.872 73.6484 50.705 73.6661C50.2042 73.7297 49.6994 73.7553 49.1947 73.7426C48.7309 73.7211 48.2671 73.4982 47.8236 73.8218C47.7921 73.8452 47.6928 73.8135 47.6502 73.7761C47.4294 73.5849 47.2188 73.5607 46.9498 73.709C46.6808 73.8573 46.4804 73.7314 46.4052 73.4292H45.2327C45.1102 73.6428 44.9599 73.8452 44.8718 74.0728C44.7697 74.3339 44.6566 74.2407 44.5304 74.1213C43.958 73.5803 44.0313 73.6661 43.2808 74.028C43.1964 74.0681 43.0526 74.0942 42.9877 74.0494C42.4969 73.7183 42.0006 73.9403 41.5034 73.9981C41.3058 74.0205 41.0776 74.056 40.9088 73.9823C40.496 73.7957 39.9366 73.9944 39.7956 74.4198C39.738 74.2854 39.7074 74.1278 39.6156 74.0271C39.5386 73.9403 39.3902 73.9189 39.2733 73.8685L39.2241 73.9618L39.4097 74.2239H38.4078C38.1842 74.3796 37.9894 74.5149 37.8103 74.6408L37.4643 74.1567C37.0673 74.2668 36.8836 74.8414 36.3947 74.5737L36.6405 74.1511L36.5478 74.0299C36.4188 74.1045 36.2908 74.1828 36.16 74.2537C36.0292 74.3246 35.8446 74.4925 35.7426 74.4561C35.2546 74.2808 34.8084 74.4365 34.3427 74.5317C33.9141 74.6184 33.4707 74.6306 33.0384 74.6996C32.8946 74.7229 32.7657 74.8311 32.6228 74.8861C32.5454 74.9135 32.462 74.9193 32.3816 74.9029C32.0402 74.8302 31.7007 74.7462 31.3315 74.6595C31.3101 74.846 31.2981 74.958 31.2777 75.1464L30.8964 74.8274C30.8092 75.2788 30.478 75.4458 30.1014 75.5484C29.9891 75.5792 29.862 75.5577 29.7498 75.5904C29.542 75.651 29.3407 75.734 29.042 75.8413C29.1227 75.6146 29.1756 75.4682 29.2637 75.2182C29.0633 75.2854 28.9 75.3031 28.785 75.387C28.4548 75.6258 28.1356 75.6865 27.7822 75.4421C27.7255 75.4108 27.6589 75.4031 27.5967 75.4206C27.4297 75.4673 27.2673 75.5325 27.1041 75.5904L27.3007 75.9999H26.4009C26.451 75.8935 26.4937 75.7928 26.5864 75.6072C26.4167 75.6762 26.2794 75.6893 26.2154 75.7657C25.797 76.2424 25.2561 76.3683 24.6597 76.3627C24.2301 76.3627 24.2301 76.3627 24.0455 76.8151C23.8813 76.5353 23.7283 76.4616 23.3962 76.6453C22.872 76.941 22.3757 77.3347 21.7421 77.4C21.6809 77.4065 21.602 77.538 21.5835 77.6229C21.5102 77.9466 21.3506 78.1182 20.9926 78.1005C20.6642 78.0846 20.6029 78.2161 20.7143 78.5211C20.7486 78.6144 20.7319 78.7907 20.6669 78.8495C20.4535 79.0265 20.2306 79.1916 19.999 79.3438V79.5798L20.4128 79.5509L20.7421 79.8858C20.6697 79.9875 20.5324 80.1078 20.5074 80.2477C20.4963 80.3121 20.7059 80.4156 20.8831 80.5536C20.8163 80.7076 20.7254 80.9202 20.615 81.1767C20.9388 81.1627 20.9861 81.3437 20.9573 81.5918C20.9286 81.8399 21.0009 82.0116 21.3284 81.9416C21.4211 81.922 21.5566 82.0787 21.6577 82.1711C21.7936 82.2997 21.9207 82.4374 22.038 82.5834C22.2468 82.7587 22.7041 82.5143 22.7718 83.0413L22.3154 82.9621C22.2997 83.1169 22.2857 83.2521 22.2718 83.3837L23.0891 83.337C22.8702 83.628 22.333 83.5189 22.4741 84.0459L23.411 84.1392C23.4366 84.1396 23.4619 84.1453 23.4852 84.156C23.8442 84.35 23.8442 84.3509 23.9593 83.8687C23.9889 84.2931 24.2552 84.2689 24.4361 84.197C24.7756 84.0627 24.8879 84.2017 24.9138 84.5123C25.1847 84.4125 25.4324 84.3202 25.681 84.2325C25.7126 84.2222 25.7849 84.2325 25.7858 84.2465C25.8264 84.4693 25.8469 84.6953 25.8471 84.9218C25.8471 84.9703 25.6486 85.0216 25.5363 85.0477C25.4509 85.0524 25.3654 85.0449 25.2821 85.0253L25.2441 85.6475L23.7181 85.4451C23.924 85.6456 24.1408 85.8347 24.3674 86.0113C24.5 86.1142 24.6639 86.1679 24.8313 86.1633C24.9556 86.1456 25.0586 85.9768 25.2098 85.8359L25.309 86.2286L25.4018 86.2836L25.733 85.4721C25.8962 85.612 26.0391 85.6727 25.8508 85.9133C25.7163 86.084 25.7014 86.3629 25.6745 86.598C25.6772 86.6527 25.6918 86.7061 25.7173 86.7544C25.7428 86.8028 25.7785 86.8449 25.822 86.8778C26.1003 87.0756 26.6569 86.9599 26.874 86.6978C26.945 86.636 27.0318 86.5953 27.1245 86.5803C27.3805 86.5084 27.6393 86.4487 27.8972 86.3835L27.8759 86.2846C27.8992 86.2964 27.9205 86.3118 27.939 86.3303C28.3787 86.9375 28.8963 86.9888 29.4539 86.487C29.5912 86.3629 29.7489 86.2613 29.9177 86.1335L30.5123 86.4441C30.3537 86.7398 30.2275 86.9758 30.093 87.2248C30.8036 87.3731 31.0272 87.3181 31.0958 86.9786C31.0346 86.9898 30.9726 86.9958 30.9103 86.9963C30.8008 86.987 30.6932 86.9655 30.5847 86.9487C30.6162 86.8069 30.6014 86.6204 30.6877 86.5318C30.9929 86.2146 30.9548 85.7333 30.5847 85.5412C30.2962 85.3919 30.0021 85.2613 30.0049 84.8369C30.0049 84.6821 29.8611 84.5272 29.7646 84.336C29.7461 84.3416 29.657 84.336 29.6134 84.3827C29.2591 84.739 28.8286 84.5263 28.4316 84.5524C28.3935 84.5524 28.3388 84.5645 28.3184 84.544C28.2553 84.4703 28.144 84.3668 28.1616 84.3062C28.2358 84.0497 28.3472 83.8053 28.4492 83.56C28.5563 83.6079 28.6563 83.6707 28.7461 83.7465C29.0132 84.0497 29.3472 83.8528 29.632 83.8445C29.9808 83.8342 30.3314 83.6915 30.67 83.574C30.7823 83.5357 30.8611 83.3986 30.9771 83.2839C31.042 83.3454 31.1728 83.4116 31.209 83.5124C31.3324 83.8575 31.6079 83.7568 31.825 83.7223C32.1033 83.6784 32.364 83.5637 32.6673 83.4695C32.5996 83.9359 32.3807 84.1429 31.94 84.0879C31.9243 84.4106 31.8538 84.711 32.2109 84.8845C32.261 84.9097 32.2731 85.0141 32.3037 85.086L32.5124 85.0487L32.2527 84.6756L32.9772 84.8341C32.9883 84.8071 32.9985 84.78 33.0087 84.753L32.735 84.4554C33.5347 84.0823 33.6831 84.7856 34.0394 85.2016L33.6636 85.5066H34.2472L34.2175 85.5673C34.5496 85.7445 34.8668 85.959 35.2221 86.0756C35.3214 86.1083 35.6201 85.8686 35.6368 85.7314C35.6563 85.5645 35.4726 85.3733 35.3771 85.1923L35.0895 85.3789C34.9351 85.159 34.7945 84.9297 34.6683 84.6923C34.6321 84.6149 34.7036 84.4591 34.7611 84.3668C34.903 84.1541 35.0691 83.9582 35.2249 83.7558C35.3594 83.5814 35.4949 83.4079 35.6572 83.1962L35.3956 83.143C35.6526 82.8716 35.9466 82.8268 36.2871 83.0497L35.3789 83.8892L36.0283 85.0477C36.0162 85.2082 35.9995 85.4208 35.9782 85.7007C36.2092 85.7165 36.4123 85.7454 36.6155 85.7417C36.8187 85.738 37.0107 85.7016 37.2083 85.6792C37.2287 85.6195 37.2482 85.5598 37.2677 85.501L37.5358 85.9264L36.9708 86.1782C36.8725 86.8004 37.1563 86.9496 38.1768 86.7566C38.1118 86.7025 38.0682 86.6633 38.0256 86.6288L37.7064 86.3387C37.8159 86.2566 37.9291 86.1782 38.0339 86.0906C38.1387 86.0029 38.2389 85.904 38.4319 85.724L37.9903 85.6027L38.1044 85.4022C38.2491 85.4208 38.4087 85.4078 38.5349 85.4656C38.9106 85.64 39.2696 85.8527 39.6481 86.0253C39.7325 86.0644 39.8689 86.015 39.9727 85.9805C40.0996 85.9309 40.2236 85.8739 40.3438 85.8098C40.3605 85.959 40.3791 86.1092 40.3948 86.2585C40.3995 86.2967 40.3995 86.3359 40.4032 86.4012L40.8188 86.4208C40.7576 85.8051 41.1351 85.7203 41.5609 85.7827C41.5878 85.5486 41.6101 85.3565 41.6324 85.1653H41.7622C41.7799 85.2986 41.7984 85.4311 41.8207 85.5953L42.1342 85.6475C42.0897 86.2398 42.6222 85.6344 42.7502 85.9404C42.7578 85.8827 42.7737 85.8265 42.7975 85.7734C42.8391 85.7218 42.8864 85.6752 42.9385 85.6344C42.9756 85.6904 43.0517 85.752 43.0452 85.8023C42.9738 86.3415 43.4163 86.501 43.7419 86.7043C44.0202 86.8778 44.1491 86.5709 44.2567 86.3806C44.3644 86.1904 44.3987 85.9917 44.4794 85.7548C44.5989 85.8565 44.725 85.9499 44.857 86.0346C45.1761 86.2081 45.3709 85.9292 45.6074 85.8051C45.7132 85.7492 45.8152 85.6372 45.9201 85.6363C46.4275 85.6307 46.9275 85.6596 47.3561 85.2856C47.4591 85.1923 47.678 85.2427 47.871 85.2231C47.9146 85.4927 48.0713 85.5757 48.3515 85.3761C48.4117 85.356 48.4768 85.356 48.537 85.3761C48.5468 85.488 48.5499 85.6005 48.5463 85.7128C48.8042 85.8061 49.0584 85.8732 49.2977 85.9786C49.7504 86.1792 49.9267 86.099 50.2495 85.6988C50.322 85.5992 50.4231 85.5242 50.5391 85.4838C50.6551 85.4435 50.7807 85.4397 50.8989 85.4731C51.3943 85.5719 51.9481 85.807 52.4759 85.4927C52.5238 85.4731 52.5757 85.4657 52.6271 85.4712C52.6642 85.4712 52.7014 85.488 52.6642 85.4787C52.7375 85.7482 52.7988 85.9768 52.8878 86.306L51.5399 86.3806C52.3377 86.9049 53.168 86.5784 54.0168 86.5178L53.8461 86.0924L54.1884 85.8574L54.2422 85.8965C54.2033 85.9777 54.1643 86.0588 54.0854 86.2212L54.5641 86.0038V86.5803C54.8109 86.4068 54.9556 86.4497 55.194 86.6045C55.4324 86.7594 55.8434 86.6857 56.1727 86.6978C56.2617 86.6883 56.35 86.673 56.4371 86.6521C56.8852 86.6082 57.3332 86.5588 57.7822 86.529C58.1357 86.5047 58.285 86.3517 58.1533 86.0029C58.1876 85.9786 58.2164 85.9478 58.2275 85.9525C58.6839 86.1764 59.0995 86.1073 59.4956 85.7977C59.5368 85.7773 59.5823 85.7673 59.6282 85.7685C59.674 85.7696 59.7189 85.7819 59.7591 85.8042C60.1877 86.1018 60.6664 86.0169 61.1358 86.0159C61.2192 86.0159 61.3213 85.9889 61.3816 86.029C62.031 86.4739 62.5041 86.4823 63.0635 86.0449C63.249 86.1913 63.39 86.3471 63.5672 86.4431C63.8705 86.6082 64.2462 86.6204 64.4893 86.9263C64.545 86.9972 64.7314 86.9627 64.8882 86.9058L64.173 86.4991C64.48 86.3126 64.7203 86.1652 64.9708 86.0327C65.006 86.0141 65.1192 86.071 65.147 86.1204C65.3176 86.4187 65.58 86.6531 65.8947 86.7883C66.109 86.8927 66.1146 86.8414 66.238 86.7211C66.3613 86.6008 66.6638 86.4021 66.7296 86.4515C66.9884 86.6626 67.2172 86.9083 67.4096 87.1819C67.4829 87.2752 67.4681 87.4421 67.5024 87.6063L67.122 87.5625C67.1369 87.7145 67.1369 87.7145 68.1369 87.7238C68.0497 87.5858 67.9829 87.4813 67.9152 87.3731L68.1443 87.0653L68.6583 87.2089V87.4393L68.2649 87.3983C68.3855 87.7481 68.6518 87.7024 68.8503 87.6567C69.0488 87.611 69.2121 87.4608 69.4394 87.3293C69.3188 87.2537 69.3086 87.2453 69.2965 87.236L68.8883 87.0709C69.0745 87.0779 69.261 87.0664 69.4449 87.0364C69.5813 87.0019 69.6973 86.8881 69.9032 86.7566C70.0145 86.8834 70.1657 87.0756 70.3383 87.2444C70.3967 87.3013 70.5516 87.3517 70.5925 87.319C70.9023 87.0672 71.163 87.278 71.4042 87.4123C71.6825 87.569 71.9543 87.6744 72.2391 87.5056C72.7354 87.2145 73.0341 87.5923 73.3838 87.8078C73.4626 87.8646 73.5373 87.927 73.6074 87.9943C74.1074 87.7145 74.4636 87.3796 74.3588 86.7482L74.8366 86.7053C74.8366 86.5737 74.8366 86.4366 74.8366 86.2995C74.8282 86.0309 74.7039 85.7398 75.0471 85.5533C75.0796 85.5356 74.9896 85.2837 74.9544 85.1298C75.0356 85.0544 75.1275 84.9915 75.2271 84.9433C75.3997 84.8836 75.6093 84.7903 75.7624 84.8388C76.2951 85.0156 76.8673 85.0334 77.4099 84.8901C77.1836 84.641 77.1891 84.3108 77.4814 84.1523C77.9053 83.9237 77.9053 83.5273 77.9647 83.1561C78.0055 82.9005 77.9721 82.6337 77.9721 82.352L78.4665 82.2541L78.204 81.6814ZM29.0123 84.8024C29.2127 84.8462 29.5587 84.8453 29.5893 84.9433C29.7201 85.3649 29.1709 85.0151 29.1431 85.3164L29.0123 85.2744V84.8024ZM57.9984 85.7613C57.7943 85.8686 57.6579 85.9917 57.5113 86.0057C57.3199 86.0129 57.129 85.9812 56.9501 85.9124C56.8369 85.8742 56.7479 85.7669 56.6486 85.6895L56.4529 86.1559C56.0994 86.1717 55.6903 86.2053 55.2821 86.1978C55.1597 86.1978 55.0354 86.0859 54.9194 86.0113C54.7877 85.9283 54.6736 85.8098 54.5335 85.7445C54.3146 85.6428 54.309 85.6512 54.3415 85.3854L55.1977 85.4246L55.3304 85.8051C55.5669 85.5458 55.9334 86.1577 56.1467 85.6951C56.0447 85.5841 55.9612 85.4955 55.8833 85.4059C56.0073 85.3639 56.136 85.3376 56.2664 85.3276C56.3898 85.3341 56.5104 85.4031 56.6607 85.4535C56.6449 85.3061 56.6338 85.196 56.6133 84.9974C56.8193 85.0272 57.0132 85.0151 57.17 85.0906C57.451 85.229 57.7192 85.3922 57.9715 85.5785C58.0225 85.6102 57.9974 85.7594 57.9984 85.7613Z" fill="#1923F6"/>
<path d="M79 20.1672L78.1429 20.46L78.0696 20.3509C78.1392 20.0963 78.2097 19.8426 78.295 19.531L79 19.6942V20.1672Z" fill="#F71812"/>
<path d="M61.9846 23.4075C61.5745 23.5745 61.2489 23.7741 60.9001 23.831C60.5893 23.8823 60.645 23.5353 60.6153 23.3385C60.6014 23.2452 60.6849 23.1295 60.722 23.0307C60.9715 22.9924 61.1923 22.9644 61.351 23.2303C61.3964 23.3068 61.5838 23.2956 61.7053 23.3236C61.7907 23.3497 61.8742 23.3758 61.9846 23.4075Z" fill="#F71812"/>
<path d="M32.2917 21.6531C32.3845 21.8303 32.4772 22.0066 32.5654 22.1829L32.6887 22.1959C32.5644 22.4133 32.2824 22.5187 32.1164 22.4114C31.826 22.2249 31.6117 21.9152 31.3687 21.6652H32.2963L32.2917 21.6531Z" fill="#F71812"/>
<path d="M75.4562 23.3228L75.6881 23.6959C75.1158 23.6595 75.4043 24.013 75.4163 24.2415L75.2892 24.2714L74.908 23.7817L75.4562 23.3228Z" fill="#F71812"/>
<path d="M30.6209 20.7083L31.0374 21.072C30.9066 21.2875 30.4651 21.336 30.1636 21.1513L30.6209 20.7083Z" fill="#F71812"/>
<path d="M77.5649 16.4884C77.8776 16.022 78.142 15.8597 78.4434 16.3951L77.5649 16.4884Z" fill="#F71812"/>
<path d="M28.0483 23.832H27.2561L27.707 23.4001L28.0483 23.832Z" fill="#F71812"/>
<path d="M33.2435 22.0878C33.1639 21.993 33.0969 21.8883 33.044 21.7763C33.032 21.7417 33.1563 21.6587 33.2175 21.5972L33.4337 21.96L33.2435 22.0878Z" fill="#F71812"/>
<path d="M50.9294 23.1053C50.9378 22.9337 50.9424 22.7621 50.9591 22.5914C50.9784 22.5785 51.0002 22.5698 51.023 22.5658C51.0459 22.5617 51.0693 22.5625 51.0918 22.5681C51.1112 22.5816 51.1269 22.5998 51.1376 22.6209C51.1483 22.6421 51.1536 22.6656 51.153 22.6893C51.1345 22.8227 51.0992 22.9542 51.0704 23.0857L50.9294 23.1053Z" fill="#F71812"/>
<g filter="url(#filter0_d)">
<path d="M78.2041 18.2531C78.4629 17.9976 78.7059 17.7084 78.3599 17.3437C78.2479 17.2458 78.123 17.1639 77.9888 17.1002C77.8293 17.007 77.6437 16.9491 77.5065 16.8316C77.127 16.5089 77.3896 16.2421 77.5937 15.9212L77.2949 16.0145L77.2467 15.9455L77.8033 15.6656C77.6966 15.3681 77.6011 15.106 77.525 14.8793C77.6873 14.8653 77.8961 14.9064 77.9592 14.8289C78.1326 14.6041 78.2106 14.328 78.038 14.0212L77.6781 14.2077C77.6141 13.8729 77.5296 13.579 77.5092 13.2815C77.4925 13.0418 77.4443 12.9298 77.1771 12.9196C76.9619 12.9112 76.6957 12.8739 76.5509 12.7405C76.3088 12.5175 76.1539 12.6472 75.9869 12.7815C75.8199 12.9158 75.6864 12.886 75.5092 12.7815C75.2107 12.6055 74.8986 12.4539 74.5759 12.3282C74.4386 12.2741 74.2243 12.2433 74.1195 12.3133C73.7048 12.5931 73.3774 12.4522 73.0369 12.1855C72.9924 12.1593 72.9427 12.1435 72.8914 12.1389C72.8401 12.1344 72.7884 12.1414 72.7401 12.1594C71.9469 12.5129 71.2716 12.1304 70.5656 11.8543C70.3476 11.7685 70.0776 11.8161 69.7428 11.7974C69.6324 11.5978 69.4385 11.3982 69.1861 11.8534C69.1769 11.8711 68.9403 11.8236 68.8921 11.7508C68.7158 11.485 68.5609 11.4607 68.2891 11.6473C67.9941 11.8497 67.6842 11.7098 67.3967 11.5447C67.2585 11.4604 67.1069 11.4008 66.9486 11.3684C66.6512 11.3205 66.3514 11.2893 66.0506 11.2751C65.9198 11.2676 65.7844 11.3292 65.6554 11.318C65.4836 11.2998 65.3143 11.2623 65.1508 11.2061C64.8502 11.1072 64.5561 10.9925 64.1897 10.8591C64.3094 11.2751 64.3938 11.5652 64.4773 11.8553L64.3159 11.915C64.1916 11.6305 64.0376 11.3553 63.9522 11.0578C63.8938 10.8395 63.7862 10.7658 63.6006 10.804C63.3548 10.8535 63.1145 10.9346 62.8706 10.9906C62.7733 11.0234 62.6702 11.0352 62.5681 11.0251C62.146 10.9318 61.7332 10.8162 61.3056 10.7378C61.2026 10.7192 61.0783 10.8162 60.9466 10.8665C60.7907 10.5569 60.594 10.4515 60.2972 10.7378C60.2378 10.7938 60.0402 10.7714 59.9521 10.7145C59.581 10.4682 59.235 10.3628 58.8324 10.6847C58.683 10.804 58.4465 10.8637 58.2758 10.5914C58.1635 10.4095 56.8898 10.2407 56.6987 10.3414C56.2924 10.5522 55.8954 10.666 55.4538 10.3946C55.2822 10.2892 55.0438 10.3013 54.8388 10.2444C54.5419 10.1679 54.2469 10.0839 53.9519 10.0028L53.9528 10H51.1847C51.0251 10.083 50.872 10.2201 50.705 10.2379C50.2043 10.3015 49.6994 10.3271 49.1948 10.3143C48.731 10.2929 48.2671 10.07 47.8237 10.3936C47.7922 10.4169 47.6929 10.3852 47.6502 10.3479C47.4294 10.1614 47.2189 10.1325 46.9498 10.2808C46.6808 10.4291 46.4804 10.3031 46.4053 10.0009H45.2327C45.1103 10.2145 44.96 10.4169 44.8718 10.6445C44.7698 10.9057 44.6566 10.8124 44.5305 10.693C43.9581 10.152 44.0314 10.2379 43.2809 10.5998C43.1965 10.6399 43.0527 10.666 42.9877 10.6212C42.497 10.2901 42.0007 10.5121 41.5035 10.5699C41.3059 10.5923 41.0777 10.6278 40.9088 10.5541C40.496 10.3722 39.9366 10.5662 39.7956 10.9915C39.7381 10.8572 39.7075 10.6996 39.6156 10.5988C39.5386 10.5121 39.3902 10.4906 39.2733 10.4403L39.2242 10.5335L39.4097 10.7957H38.4078C38.1842 10.9514 37.9894 11.0867 37.8104 11.2126L37.4644 10.7285C37.0673 10.8386 36.8836 11.4131 36.3948 11.1454L36.6406 10.7229L36.5478 10.6016C36.4189 10.6763 36.2909 10.7546 36.1601 10.8255C36.0293 10.8964 35.8447 11.0643 35.7426 11.0279C35.2547 10.8526 34.8084 11.0083 34.3428 11.1035C33.9142 11.1902 33.4707 11.2023 33.0384 11.2714C32.8947 11.2947 32.7657 11.4029 32.6228 11.4579C32.5454 11.4853 32.4621 11.4911 32.3817 11.4747C32.0403 11.402 31.7007 11.318 31.3315 11.2313C31.3102 11.4178 31.2981 11.5297 31.2777 11.7182L30.8964 11.3992C30.8092 11.8506 30.4781 12.0176 30.1014 12.1202C29.9892 12.151 29.8621 12.1295 29.7498 12.1622C29.542 12.2228 29.3407 12.3058 29.042 12.4131C29.1227 12.1864 29.1756 12.0353 29.2637 11.79C29.0634 11.8571 28.9001 11.8749 28.7851 11.9588C28.4548 12.1976 28.1357 12.2582 27.7822 12.0138C27.7256 11.9825 27.659 11.9748 27.5967 11.9924C27.4297 12.039 27.2674 12.1043 27.1041 12.1622L27.3008 12.5716H26.4009C26.451 12.4653 26.4937 12.3646 26.5865 12.1789C26.4167 12.248 26.2794 12.261 26.2154 12.3375C25.797 12.8142 25.2562 12.9401 24.6597 12.9345C24.2302 12.9345 24.2302 12.9345 24.0456 13.3869C23.8814 13.1071 23.7283 13.0334 23.3962 13.2171C22.8721 13.5128 22.3758 13.9064 21.7422 13.9717C21.6809 13.9783 21.6021 14.1098 21.5835 14.1947C21.5103 14.5183 21.3507 14.69 20.9926 14.6722C20.6642 14.6564 20.603 14.7879 20.7143 15.0929C20.7486 15.1862 20.7319 15.3625 20.667 15.4213C20.4537 15.596 20.2311 15.7589 20 15.9091V16.1451L20.4137 16.1162L20.7421 16.4576C20.6698 16.5592 20.5325 16.6796 20.5074 16.8195C20.4963 16.8838 20.706 16.9874 20.8831 17.1254C20.8145 17.2756 20.7236 17.492 20.6132 17.7485C20.9369 17.7345 20.9843 17.9155 20.9555 18.1636C20.9267 18.4117 20.9991 18.5833 21.3266 18.5134C21.4193 18.4938 21.5548 18.6505 21.6559 18.7428C21.7934 18.8713 21.9221 19.009 22.0409 19.1551C22.2496 19.3305 22.7069 19.0861 22.7747 19.6131L22.3183 19.5338C22.3025 19.6887 22.2886 19.8239 22.2747 19.9554L23.0919 19.9088C22.873 20.1998 22.3359 20.0954 22.4769 20.6177L23.4138 20.711C23.4395 20.7114 23.4647 20.7171 23.4881 20.7278C23.8471 20.9218 23.8471 20.9227 23.9621 20.4405C23.9918 20.8649 24.258 20.8406 24.4389 20.7688C24.7784 20.6345 24.8907 20.7688 24.9167 21.0841C25.1875 20.9843 25.4352 20.8919 25.6839 20.8043C25.7154 20.794 25.7878 20.8043 25.7887 20.8183C25.8292 21.0411 25.8497 21.2671 25.8499 21.4936C25.8499 21.5421 25.6514 21.5934 25.5391 21.6195C25.4538 21.6242 25.3682 21.6166 25.285 21.5971L25.2441 22.2193L23.7181 22.0169C23.9241 22.2174 24.1409 22.4064 24.3675 22.5831C24.5 22.686 24.6639 22.7397 24.8313 22.7351C24.9556 22.7174 25.0586 22.5485 25.2098 22.4077L25.3091 22.8004L25.4018 22.8554L25.733 22.0439C25.8963 22.1838 26.0392 22.2445 25.8508 22.4851C25.7163 22.6558 25.7015 22.9347 25.6746 23.1698C25.6772 23.2244 25.6918 23.2778 25.7173 23.3262C25.7428 23.3746 25.7786 23.4167 25.8221 23.4496C26.1004 23.6473 26.657 23.5317 26.8741 23.2696C26.9451 23.2078 27.0318 23.1671 27.1245 23.152C27.3806 23.0802 27.6394 23.0205 27.8973 22.9552L27.8759 22.8564C27.8992 22.8682 27.9205 22.8836 27.939 22.9021C28.3787 23.5093 28.8964 23.5606 29.4539 23.0588C29.5912 22.9347 29.7489 22.833 29.9178 22.7052L30.5124 23.0159C30.3538 23.3115 30.2276 23.5475 30.0931 23.7966C30.8037 23.9449 31.0272 23.8899 31.0959 23.5503C31.0347 23.5616 30.9726 23.5675 30.9104 23.5681C30.8009 23.5587 30.6933 23.5373 30.5847 23.5205C30.6163 23.3787 30.6014 23.1922 30.6877 23.1035C30.9929 22.7864 30.9549 22.3051 30.5847 22.1129C30.2962 21.9637 30.0022 21.8331 30.005 21.4087C30.005 21.2539 29.8612 21.099 29.7647 20.9078C29.7461 20.9134 29.6571 20.9078 29.6135 20.9544C29.2591 21.3108 28.8287 21.0981 28.4316 21.1242C28.3936 21.1242 28.3389 21.1363 28.3184 21.1158C28.2554 21.0421 28.144 20.9386 28.1617 20.878C28.2359 20.6214 28.3472 20.3771 28.4492 20.1317C28.5564 20.1797 28.6563 20.2425 28.7461 20.3183C29.0133 20.6214 29.3472 20.4246 29.632 20.4116C29.9808 20.4013 30.3315 20.2586 30.6701 20.1411C30.7823 20.1028 30.8612 19.9657 30.9772 19.851C31.0421 19.9125 31.1729 19.9788 31.2091 20.0795C31.3325 20.4246 31.608 20.3239 31.825 20.2894C32.1033 20.2455 32.364 20.1308 32.6674 20.0366C32.5997 20.503 32.3807 20.7101 31.9401 20.655C31.9243 20.9778 31.8538 21.2781 32.211 21.4516C32.2611 21.4768 32.2731 21.5813 32.3037 21.6531L32.5125 21.6158L32.2527 21.2427L32.9772 21.4012C32.9883 21.3742 32.9986 21.3471 33.0088 21.3201L32.7351 21.0225C33.5347 20.6494 33.6832 21.3527 34.0394 21.7687L33.6637 22.0738H34.2472L34.2175 22.1344C34.5496 22.3116 34.8669 22.5262 35.2222 22.6427C35.3214 22.6754 35.6202 22.4357 35.6369 22.2986C35.6563 22.1316 35.4727 21.9404 35.3771 21.7594L35.0895 21.946C34.9352 21.7261 34.7945 21.4968 34.6684 21.2595C34.6322 21.182 34.7036 21.0263 34.7611 20.9339C34.9031 20.7212 35.0691 20.5254 35.225 20.323C35.3595 20.1485 35.4949 19.975 35.6573 19.7633L35.3957 19.7101C35.6526 19.4387 35.9467 19.3939 36.2872 19.6168L35.379 20.4563L36.0283 21.6148C36.0163 21.7753 35.9996 21.9879 35.9782 22.2678C36.2092 22.2836 36.4124 22.3125 36.6156 22.3088C36.8187 22.3051 37.0107 22.2687 37.2083 22.2463C37.2287 22.1866 37.2482 22.1269 37.2677 22.0682L37.5358 22.4935L36.9708 22.7454C36.8725 23.3675 37.1564 23.5168 38.1768 23.3237C38.1119 23.2696 38.0683 23.2304 38.0256 23.1959L37.7065 22.9058C37.816 22.8237 37.9291 22.7454 38.034 22.6577C38.1388 22.57 38.239 22.4711 38.4319 22.2911L37.9904 22.1698L38.1045 21.9693C38.2492 21.9879 38.4087 21.9749 38.5349 22.0327C38.9106 22.2071 39.2696 22.4198 39.6481 22.5924C39.7325 22.6316 39.8689 22.5821 39.9728 22.5476C40.0997 22.498 40.2236 22.441 40.3439 22.3769C40.3606 22.5262 40.3791 22.6763 40.3949 22.8256C40.3995 22.8638 40.3995 22.903 40.4032 22.9683L40.8188 22.9879C40.7576 22.3722 41.1352 22.2874 41.561 22.3499C41.5879 22.1157 41.6101 21.9236 41.6324 21.7324H41.7623C41.7799 21.8658 41.7985 21.9982 41.8207 22.1624L42.1343 22.2146C42.0898 22.8069 42.6222 22.2015 42.7503 22.5075C42.7578 22.4498 42.7738 22.3936 42.7976 22.3405C42.8391 22.289 42.8865 22.2423 42.9386 22.2015C42.9757 22.2575 43.0517 22.3191 43.0453 22.3694C42.9738 22.9086 43.4163 23.0681 43.7419 23.2714C44.0202 23.4449 44.1492 23.138 44.2568 22.9478C44.3644 22.7575 44.3987 22.5588 44.4794 22.3219C44.5989 22.4236 44.725 22.5171 44.857 22.6017C45.1761 22.7752 45.3709 22.4963 45.6075 22.3722C45.7132 22.3163 45.8153 22.2043 45.9201 22.2034C46.4275 22.1978 46.9276 22.2267 47.3561 21.8527C47.4591 21.7594 47.6781 21.8098 47.871 21.7902C47.9146 22.0598 48.0714 22.1428 48.3515 21.9432C48.4118 21.9231 48.4768 21.9231 48.5371 21.9432C48.5469 22.0551 48.55 22.1676 48.5464 22.2799C48.8042 22.3732 49.0584 22.4403 49.2978 22.5457C49.7505 22.7463 49.9267 22.6661 50.2496 22.2659C50.3221 22.1663 50.4231 22.0913 50.5391 22.051C50.6552 22.0106 50.7807 22.0069 50.8989 22.0402C51.3943 22.1391 51.9481 22.3741 52.476 22.0598C52.5238 22.0402 52.5758 22.0328 52.6272 22.0383C52.6643 22.0383 52.7014 22.0551 52.6643 22.0458C52.7376 22.3153 52.7988 22.5439 52.8879 22.8731L51.54 22.9478C52.3378 23.472 53.168 23.1455 54.0168 23.0849L53.8461 22.6595L54.1885 22.4245L54.2423 22.4637C54.2033 22.5448 54.1643 22.626 54.0855 22.7883L54.5642 22.5709V23.152C54.8109 22.9785 54.9556 23.0215 55.1941 23.1763C55.4325 23.3311 55.8434 23.2574 56.1728 23.2696C56.2618 23.2601 56.3501 23.2448 56.4371 23.2239C56.8852 23.18 57.3333 23.1306 57.7823 23.1007C58.1357 23.0765 58.2851 22.9235 58.1533 22.5747C58.1877 22.5504 58.2164 22.5196 58.2275 22.5243C58.684 22.7482 59.0996 22.6791 59.4957 22.3694C59.5369 22.3491 59.5823 22.3391 59.6282 22.3402C59.6741 22.3414 59.719 22.3536 59.7591 22.376C60.1877 22.6735 60.6664 22.5886 61.1358 22.5877C61.2193 22.5877 61.3213 22.5607 61.3816 22.6008C62.031 23.0457 62.5041 23.0541 63.0635 22.6166C63.249 22.7631 63.39 22.9188 63.5672 23.0149C63.8706 23.18 64.2463 23.1922 64.4893 23.4981C64.545 23.569 64.7315 23.5345 64.8882 23.4776L64.173 23.0709C64.4801 22.8843 64.7203 22.737 64.9708 22.6045C65.0061 22.5859 65.1192 22.6427 65.1471 22.6922C65.3176 22.9905 65.5801 23.2249 65.8948 23.36C66.1091 23.4645 66.1146 23.4132 66.238 23.2929C66.3614 23.1726 66.6638 22.9739 66.7297 23.0233C66.9885 23.2344 67.2173 23.4801 67.4097 23.7537C67.4829 23.847 67.4681 24.0139 67.5024 24.1781L67.1221 24.1342C67.1369 24.2863 67.1369 24.2863 68.137 24.2956C68.0498 24.1576 67.983 24.0531 67.9152 23.9449L68.1444 23.6371L68.6583 23.7807V24.0111L68.265 23.9701C68.3856 24.3199 68.6518 24.2742 68.8503 24.2285C69.0489 24.1827 69.2121 24.0326 69.4394 23.9011C69.3188 23.8255 69.3086 23.8171 69.2965 23.8078L68.8884 23.6427C69.0746 23.6497 69.261 23.6381 69.445 23.6082C69.5813 23.5737 69.6973 23.4599 69.9032 23.3283C70.0146 23.4552 70.1658 23.6473 70.3383 23.8162C70.3968 23.8731 70.5517 23.9234 70.5925 23.8908C70.9023 23.6389 71.163 23.8498 71.4042 23.9841C71.6825 24.1408 71.9543 24.2462 72.2391 24.0773C72.7354 23.7863 73.0341 24.1641 73.3839 24.3796C73.4627 24.4364 73.5374 24.4987 73.6074 24.5661C74.1075 24.2863 74.4637 23.9514 74.3589 23.3199L74.8366 23.277C74.8366 23.1455 74.8366 23.0084 74.8366 22.8713C74.8283 22.6026 74.7039 22.3116 75.0472 22.1251C75.0797 22.1073 74.9897 21.8555 74.9544 21.7016C75.0356 21.6261 75.1275 21.5633 75.2272 21.515C75.3997 21.4553 75.6094 21.3621 75.7624 21.4106C76.2951 21.5873 76.8674 21.6052 77.41 21.4619C77.1836 21.2128 77.1892 20.8826 77.4814 20.724C77.9053 20.4955 77.9053 20.0991 77.9647 19.7278C78.0055 19.4723 77.9721 19.2055 77.9721 18.9238L78.4666 18.8305L78.2041 18.2531ZM29.0123 21.3742C29.2127 21.418 29.5587 21.4171 29.5894 21.515C29.7202 21.9366 29.171 21.5869 29.1431 21.8881L29.0123 21.8462V21.3742ZM57.9984 22.3331C57.7943 22.4403 57.658 22.5635 57.5114 22.5775C57.32 22.5847 57.1291 22.5529 56.9501 22.4842C56.837 22.4459 56.7479 22.3387 56.6486 22.2612L56.4529 22.7276C56.0995 22.7435 55.6904 22.7771 55.2822 22.7696C55.1597 22.7696 55.0354 22.6577 54.9195 22.5831C54.7877 22.5 54.6736 22.3816 54.5336 22.3163C54.3146 22.2146 54.3091 22.2277 54.3415 21.9572L55.1978 21.9963L55.3304 22.3769C55.567 22.1176 55.9334 22.7295 56.1468 22.2668C56.0447 22.1558 55.9612 22.0672 55.8833 21.9777C56.0073 21.9357 56.136 21.9094 56.2664 21.8993C56.3898 21.9059 56.5104 21.9749 56.6607 22.0253C56.6449 21.8779 56.6338 21.7678 56.6134 21.5691C56.8193 21.599 57.0132 21.5869 57.17 21.6624C57.4511 21.8008 57.7193 21.964 57.9715 22.1502C58.0225 22.182 57.9975 22.3312 57.9984 22.3331Z" fill="#F71812"/>
</g>
</g>
<defs>
<filter id="filter0_d" x="15" y="5" width="68.5314" height="24.5661" filterUnits="userSpaceOnUse" color-interpolation-filters="sRGB">
<feFlood flood-opacity="0" result="BackgroundImageFix"/>
<feColorMatrix in="SourceAlpha" type="matrix" values="0 0 0 0 0 0 0 0 0 0 0 0 0 0 0 0 0 0 127 0" result="hardAlpha"/>
<feOffset/>
<feGaussianBlur stdDeviation="2.5"/>
<feComposite in2="hardAlpha" operator="out"/>
<feColorMatrix type="matrix" values="0 0 0 0 0 0 0 0 0 0 0 0 0 0 0 0 0 0 0.25 0"/>
<feBlend mode="normal" in2="BackgroundImageFix" result="effect1_dropShadow"/>
<feBlend mode="normal" in="SourceGraphic" in2="effect1_dropShadow" result="shape"/>
</filter>
<clipPath id="clip0">
<rect width="59" height="78" fill="white" transform="translate(20 10)"/>
</clipPath>
</defs>
</svg>
