<svg width="48" height="48" viewBox="0 0 48 48" fill="none" xmlns="http://www.w3.org/2000/svg">
<circle cx="24" cy="24" r="24" fill="#387e80"/>
<path d="M15.4893 9.5238H23.2246C23.7689 9.5238 25.1999 9.5238 25.1999 11.1251C25.1999 11.3647 25.1999 11.6021 20.022 35.7622C19.5051 38.1473 17.7714 38.1473 17.1599 38.1473H7.68668C7.61489 38.1527 7.54274 38.1437 7.47447 38.1208C7.4062 38.098 7.34319 38.0617 7.28915 38.0141C7.23511 37.9665 7.19113 37.9086 7.1598 37.8438C7.12846 37.779 7.11041 37.7085 7.10669 37.6366C7.10669 37.603 7.14031 37.5337 7.78755 34.4341C7.8292 34.2459 7.932 34.0768 8.07989 33.9533C8.22778 33.8297 8.41244 33.7586 8.605 33.7511H15.0459L16.0966 28.7434H11.4335C10.8893 28.7434 9.45818 28.7434 9.45818 27.14C9.45818 26.9026 9.4918 26.663 12.5935 11.9089C13.1042 9.5238 14.882 9.5238 15.4893 9.5238ZM17.6369 13.92L15.3863 24.3809H17.0233L19.2718 13.92H17.6369ZM39.6493 9.5238C40.1957 9.5238 41.6268 9.5238 41.6268 11.1251C41.6268 11.3647 41.591 11.6021 39.5464 21.2792C39.0357 23.6643 37.3315 23.6643 36.7199 23.6643L36.6842 23.8366C37.2306 23.8366 38.5923 23.8366 38.5923 25.4022C38.5923 25.6417 38.5587 25.9149 36.4804 35.7622C35.9697 38.1473 34.1982 38.1473 33.5846 38.1473H25.7463C25.202 38.1473 23.7352 38.1473 23.7352 36.546C23.7352 36.3064 23.771 36.069 25.8829 26.2217C26.3935 23.8366 28.0978 23.8366 28.7114 23.8366L28.745 23.6643C28.2008 23.6643 26.8369 23.6643 26.8369 22.0987C26.8369 21.8592 26.8706 21.586 28.9153 11.9089C29.4259 9.5238 31.1995 9.5238 31.8131 9.5238H39.6493ZM29.6991 33.7511H31.334L32.971 26.0158H31.334L29.6991 33.7511ZM32.2544 21.6553H33.8914L35.56 13.92H33.925L32.2544 21.6553Z" fill="white"/>
<path d="M14.8586 9.5238H22.594C23.1383 9.5238 24.5693 9.5238 24.5693 11.1251C24.5693 11.3647 24.5693 11.6021 19.3914 35.7622C18.8745 38.1473 17.1408 38.1473 16.5293 38.1473H7.05607C6.98427 38.1527 6.91212 38.1437 6.84385 38.1208C6.77558 38.098 6.71258 38.0617 6.65854 38.0141C6.6045 37.9665 6.56052 37.9086 6.52918 37.8438C6.49785 37.779 6.47979 37.7085 6.47607 37.6366C6.47607 37.603 6.5097 37.5337 7.15694 34.4341C7.19858 34.2459 7.30138 34.0768 7.44927 33.9533C7.59717 33.8297 7.78182 33.7586 7.97439 33.7511H14.4152L15.466 28.7434H10.8029C10.2586 28.7434 8.82757 28.7434 8.82757 27.14C8.82757 26.9026 8.86119 26.663 11.9629 11.9089C12.4735 9.5238 14.2513 9.5238 14.8586 9.5238ZM17.0063 13.92L14.7557 24.3809H16.3927L18.6412 13.92H17.0063ZM39.0187 9.5238C39.5651 9.5238 40.9961 9.5238 40.9961 11.1251C40.9961 11.3647 40.9604 11.6021 38.9157 21.2792C38.4051 23.6643 36.7008 23.6643 36.0893 23.6643L36.0536 23.8366C36.6 23.8366 37.9617 23.8366 37.9617 25.4022C37.9617 25.6417 37.9281 25.9149 35.8498 35.7622C35.3391 38.1473 33.5676 38.1473 32.954 38.1473H25.1157C24.5714 38.1473 23.1046 38.1473 23.1046 36.546C23.1046 36.3064 23.1404 36.069 25.2523 26.2217C25.7629 23.8366 27.4672 23.8366 28.0808 23.8366L28.1144 23.6643C27.5702 23.6643 26.2063 23.6643 26.2063 22.0987C26.2063 21.8592 26.24 21.586 28.2846 11.9089C28.7953 9.5238 30.5689 9.5238 31.1825 9.5238H39.0187ZM29.0685 33.7511H30.7034L32.3404 26.0158H30.7034L29.0685 33.7511ZM31.6238 21.6553H33.2608L34.9293 13.92H33.2944L31.6238 21.6553Z" stroke="#1AFFEA" stroke-width="0.8"/>
</svg>
